<?xml version="1.0" standalone="no"?>
<!DOCTYPE svg PUBLIC "-//W3C//DTD SVG 20010904//EN"
 "http://www.w3.org/TR/2001/REC-SVG-20010904/DTD/svg10.dtd">
<svg version="1.0" xmlns="http://www.w3.org/2000/svg"
 width="217.000000pt" height="232.000000pt" viewBox="0 0 217.000000 232.000000"
 preserveAspectRatio="xMidYMid meet">

<g transform="translate(0.000000,232.000000) scale(0.100000,-0.100000)"
fill="#000000" stroke="none">
<path d="M1289 1635 c68 -19 109 -45 156 -96 74 -82 91 -161 71 -322 -16 -130
-50 -219 -119 -309 -33 -43 -35 -48 -17 -48 61 0 212 116 251 192 32 63 52
166 45 238 -8 90 -60 194 -127 254 -76 68 -148 99 -239 103 l-75 3 54 -15z"/>
<path d="M665 1351 c-90 -42 -148 -99 -192 -189 -37 -74 -38 -79 -38 -182 1
-95 3 -111 29 -164 36 -73 85 -129 151 -172 56 -35 141 -64 189 -64 27 1 24 3
-21 19 -96 33 -170 109 -198 204 -19 64 -19 117 0 187 8 30 15 78 15 105 0 62
30 127 98 218 28 37 46 67 39 67 -7 -1 -39 -14 -72 -29z"/>
</g>
</svg>
