<svg xmlns="http://www.w3.org/2000/svg" xmlns:xlink="http://www.w3.org/1999/xlink" viewBox="0 0 838.19 667.76"><defs><style>.cls-1{fill:url(#Unbenannter_Verlauf_22);}.cls-2{fill:url(#Unbenannter_Verlauf_157);}.cls-3{fill:url(#Unbenannter_Verlauf_8);}.cls-4{fill:#7a61dd;}.cls-5{fill:#2520ea;}</style><linearGradient id="Unbenannter_Verlauf_22" x1="75.42" y1="481.64" x2="762.08" y2="85.2" gradientUnits="userSpaceOnUse"><stop offset="0" stop-color="#7a61dd"/><stop offset="0.18" stop-color="#467adb"/><stop offset="0.33" stop-color="#208dda"/><stop offset="0.45" stop-color="#0998d9"/><stop offset="0.53" stop-color="#009cd9"/><stop offset="0.65" stop-color="#0199d9"/><stop offset="0.74" stop-color="#0390db"/><stop offset="0.8" stop-color="#0881dd"/><stop offset="0.87" stop-color="#0e6ce0"/><stop offset="0.92" stop-color="#1651e3"/><stop offset="0.98" stop-color="#2030e8"/><stop offset="1" stop-color="#2520ea"/></linearGradient><linearGradient id="Unbenannter_Verlauf_157" x1="-2304.71" y1="173.22" x2="-1862.68" y2="173.22" gradientTransform="translate(-1170.4 1436.65) rotate(149)" gradientUnits="userSpaceOnUse"><stop offset="0" stop-color="#a8c0ff"/><stop offset="0.27" stop-color="#c0d1ff"/><stop offset="0.83" stop-color="#fdfeff"/><stop offset="0.85" stop-color="#fff"/></linearGradient><linearGradient id="Unbenannter_Verlauf_8" x1="498.07" y1="234.05" x2="116.51" y2="463.31" gradientTransform="matrix(1, 0, 0, 1, 0, 0)" xlink:href="#Unbenannter_Verlauf_157"/></defs><g id="Ebene_2" data-name="Ebene 2"><g id="Ebene_1-2" data-name="Ebene 1"><path class="cls-1" d="M764.49,89.42C712.4,2.71,600.24-25.73,513.21,25.38,577.7-12.13,661.93,11.3,700.47,75.45a136.73,136.73,0,0,1-17.83,164.28c-1.55,1.64-3.18,3.27-4.82,4.84l-.19.19q-4.93,4.67-10.36,8.89s-.1.08-.15.13-7.92,5.9-11.28,8l-.24.18C616.92,288.66,547.87,321,474.53,300.14c-.57,4-1.12,7.92-1.66,11.62-2.58,18-5.05,33.93-6.15,38.31-.09.33,73.46,28.22,158.28,18.33,40.77-6.33,62.29-17.21,71.66-23.28,0,0,.05,0,.09-.05h0l.1-.07q2.28-1.29,4.55-2.64C788.69,289.92,816.93,176.67,764.49,89.42ZM361,253.49,356.89,251c-74.74-45.62-101.69-51.71-146.15-49.92A186.37,186.37,0,0,0,113,239.76C39.7,300.21,23.13,394.28,71.1,474.09a184.17,184.17,0,0,0,155.22,89.4h2.09a182.69,182.69,0,0,0,46.32-5.72l1.74-.45A182.37,182.37,0,0,0,303.12,548c-61.55,24.68-135.64.07-171.08-58.8-35.68-59.28-21.42-135.1,30.32-176.84h0a138.36,138.36,0,0,1,91.21-34.14c37.57,0,72.31,12.12,99.07,31.47.46.32.92.65,1.37,1l0-.08c1.06-4.19,4.13-20.53,7.44-43.57.35-2.49,1-6.91,1.43-10.07.11-.77.21-1.46.29-2Z"/><path class="cls-2" d="M700.46,75.45c36.19,60.13,20.76,137.32-33.18,178.21,96.74-87.48-37-236.89-127.55-130.76C448.83,229.46,500.9,330.24,424.23,474c68.7-146.65-94.89-337.74,87.29-447.61C575.57-12.38,661.49,10.71,700.46,75.45Z"/><path class="cls-3" d="M322.23,538.43a130,130,0,0,1-18.58,9.31h0l-.52.22c-61.55,24.68-135.64.07-171.08-58.8-35.68-59.28-21.42-135.1,30.32-176.84h0c1-.83,2.1-1.66,3.17-2.47-97.43,88.07,37.14,238.33,128.33,131.5,37.36-43.77,50.77-86.55,58.78-131.7,3.25-18.25,5.61-36.9,8.33-56.15C368,203.68,377.35,149.8,410.34,88,341.1,235.61,505.69,427.79,322.23,538.43Z"/><path class="cls-4" d="M25.81,633.68a13,13,0,0,1,0,19c-2.75,2.3-6.54,3.45-11.34,3.45H5.3v11.23H0v-37.1H14.47C19.27,630.23,23.06,631.38,25.81,633.68ZM22,649.34A8.52,8.52,0,0,0,22,637q-2.66-2.15-7.69-2.15h-9v16.65h9Q19.35,651.49,22,649.34Z"/><path class="cls-4" d="M75.26,662.72v4.61H48.34v-37.1H74.52v4.61H53.64v11.4h18.6v4.51H53.64v12Z"/><path d="M119.25,667.33l-8-11.39c-1,.07-1.77.11-2.34.11H99.75v11.28h-5.3v-37.1h14.46q7.22,0,11.35,3.45a11.71,11.71,0,0,1,4.13,9.49,12.42,12.42,0,0,1-2.12,7.31,12,12,0,0,1-6,4.4l8.8,12.45Zm-2.81-18a7.56,7.56,0,0,0,2.65-6.2,7.48,7.48,0,0,0-2.65-6.18q-2.66-2.15-7.68-2.15h-9v16.7h9Q113.79,651.54,116.44,649.37Z"/><path d="M169.39,633.68a13,13,0,0,1,0,19q-4.14,3.45-11.35,3.45h-9.16v11.23h-5.3v-37.1H158Q165.26,630.23,169.39,633.68Zm-3.82,15.66a8.52,8.52,0,0,0,0-12.35q-2.65-2.15-7.68-2.15h-9v16.65h9Q162.92,651.49,165.57,649.34Z"/><path d="M218.83,662.72v4.61H191.91v-37.1h26.18v4.61H197.21v11.4h18.6v4.51h-18.6v12Z"/><path d="M245.39,634.84H232.67v-4.61h30.68v4.61H250.63v32.49h-5.24Z"/><path d="M282.86,663.52q-4.14-4.24-4.13-12.19v-21.1H284v20.89Q284,663,294.47,663q5.08,0,7.79-2.94c1.8-2,2.7-5,2.7-9V630.23h5.14v21.1q0,8-4.13,12.22t-11.56,4.21Q287,667.76,282.86,663.52Z"/><path d="M335.38,663.52q-4.12-4.24-4.13-12.19v-21.1h5.3v20.89Q336.55,663,347,663q5.08,0,7.79-2.94c1.8-2,2.7-5,2.7-9V630.23h5.14v21.1q0,8-4.13,12.22t-11.55,4.21Q339.52,667.76,335.38,663.52Z"/><path d="M418.48,667.33l-.05-27L405,662.83h-2.44l-13.4-22.37v26.87h-5.09v-37.1h4.34l15.48,26.08,15.26-26.08h4.35l.05,37.1Z"/><path class="cls-5" d="M496,633.68a13,13,0,0,1,0,19q-4.14,3.45-11.34,3.45h-9.17v11.23h-5.3v-37.1h14.47Q491.83,630.23,496,633.68Zm-3.82,15.66a8.52,8.52,0,0,0,0-12.35c-1.76-1.43-4.33-2.15-7.68-2.15h-9v16.65h9C487.82,651.49,490.39,650.77,492.15,649.34Z"/><path class="cls-5" d="M543.3,667.33l-8-11.39c-1,.07-1.76.11-2.33.11h-9.17v11.28h-5.3v-37.1H533q7.21,0,11.34,3.45a11.68,11.68,0,0,1,4.14,9.49,12.42,12.42,0,0,1-2.12,7.31,12.05,12.05,0,0,1-6,4.4l8.79,12.45Zm-2.81-18a7.59,7.59,0,0,0,2.65-6.2,7.51,7.51,0,0,0-2.65-6.18q-2.65-2.15-7.69-2.15h-9v16.7h9Q537.84,651.54,540.49,649.37Z"/><path class="cls-5" d="M574.25,665.29a18.25,18.25,0,0,1-7.08-6.81,19.57,19.57,0,0,1,0-19.39,18.35,18.35,0,0,1,7.08-6.82,21.94,21.94,0,0,1,20.19,0,18.13,18.13,0,0,1,7,6.79,19.89,19.89,0,0,1,0,19.45,18,18,0,0,1-7,6.78,21.86,21.86,0,0,1-20.19,0Zm17.46-4.1a13.59,13.59,0,0,0,5.14-5.12,15.05,15.05,0,0,0,0-14.57,13.52,13.52,0,0,0-5.14-5.12,14.63,14.63,0,0,0-7.34-1.85,14.93,14.93,0,0,0-7.39,1.85,13.53,13.53,0,0,0-5.2,5.12,15.05,15.05,0,0,0,0,14.57,13.6,13.6,0,0,0,5.2,5.12,14.93,14.93,0,0,0,7.39,1.85A14.63,14.63,0,0,0,591.71,661.19Z"/><path d="M648.45,648.57h5.09V663a19.74,19.74,0,0,1-6.42,3.5,24,24,0,0,1-7.63,1.22,20.66,20.66,0,0,1-10.12-2.47,18.25,18.25,0,0,1-7.08-6.78,19.74,19.74,0,0,1,0-19.48,17.92,17.92,0,0,1,7.11-6.78,21.12,21.12,0,0,1,10.2-2.44,21.57,21.57,0,0,1,8.08,1.46,16.43,16.43,0,0,1,6.17,4.26l-3.28,3.29a15,15,0,0,0-10.76-4.29,15.69,15.69,0,0,0-7.61,1.83,13.35,13.35,0,0,0-5.27,5.08,15,15,0,0,0,0,14.63,13.65,13.65,0,0,0,5.27,5.12,15.47,15.47,0,0,0,7.56,1.85,15.71,15.71,0,0,0,8.69-2.38Z"/><path d="M699.06,667.33l-8-11.39c-1,.07-1.77.11-2.33.11h-9.17v11.28h-5.3v-37.1h14.47q7.2,0,11.34,3.45a11.68,11.68,0,0,1,4.13,9.49,12.34,12.34,0,0,1-2.12,7.31,12,12,0,0,1-6,4.4l8.8,12.45Zm-2.81-18a7.56,7.56,0,0,0,2.65-6.2,7.48,7.48,0,0,0-2.65-6.18q-2.64-2.15-7.68-2.15h-9v16.7h9Q693.61,651.54,696.25,649.37Z"/><path d="M750.31,662.72v4.61H723.39v-37.1h26.18v4.61H728.69v11.4h18.6v4.51h-18.6v12Z"/><path d="M772.23,666.46a16.57,16.57,0,0,1-6.12-3.37l2-4.13a16.12,16.12,0,0,0,5.43,3.1,19.85,19.85,0,0,0,6.81,1.19q4.61,0,6.89-1.56a4.82,4.82,0,0,0,2.28-4.16,4.1,4.1,0,0,0-1.25-3.1,8.19,8.19,0,0,0-3.07-1.83q-1.83-.63-5.17-1.43a53.78,53.78,0,0,1-6.76-2,11.17,11.17,0,0,1-4.39-3.11,8.25,8.25,0,0,1-1.83-5.64,9.55,9.55,0,0,1,1.56-5.35,10.76,10.76,0,0,1,4.74-3.82,19.34,19.34,0,0,1,7.9-1.43,24.83,24.83,0,0,1,6.47.85,17.1,17.1,0,0,1,5.46,2.44l-1.75,4.24a19.53,19.53,0,0,0-5-2.26,18.58,18.58,0,0,0-5.19-.76c-3,0-5.26.54-6.76,1.64a5,5,0,0,0-2.25,4.24,4.09,4.09,0,0,0,1.27,3.1,8.86,8.86,0,0,0,3.16,1.85,48.27,48.27,0,0,0,5.11,1.41,51.64,51.64,0,0,1,6.73,2,11.21,11.21,0,0,1,4.37,3.08,8.07,8.07,0,0,1,1.83,5.56,9.5,9.5,0,0,1-1.59,5.33,10.6,10.6,0,0,1-4.82,3.81,19.91,19.91,0,0,1-8,1.41A25.23,25.23,0,0,1,772.23,666.46Z"/><path d="M815.74,666.46a16.57,16.57,0,0,1-6.12-3.37l2-4.13a16.12,16.12,0,0,0,5.43,3.1,19.85,19.85,0,0,0,6.81,1.19c3.08,0,5.37-.52,6.89-1.56a4.82,4.82,0,0,0,2.28-4.16,4.09,4.09,0,0,0-1.24-3.1,8.23,8.23,0,0,0-3.08-1.83q-1.83-.63-5.17-1.43a53.05,53.05,0,0,1-6.75-2,11.2,11.2,0,0,1-4.4-3.11,8.25,8.25,0,0,1-1.83-5.64,9.55,9.55,0,0,1,1.56-5.35,10.85,10.85,0,0,1,4.75-3.82,19.29,19.29,0,0,1,7.89-1.43,24.83,24.83,0,0,1,6.47.85,17.1,17.1,0,0,1,5.46,2.44l-1.75,4.24a19.62,19.62,0,0,0-5-2.26,18.7,18.7,0,0,0-5.2-.76c-3,0-5.25.54-6.75,1.64a5,5,0,0,0-2.26,4.24,4.06,4.06,0,0,0,1.28,3.1,8.73,8.73,0,0,0,3.15,1.85,48.27,48.27,0,0,0,5.11,1.41,51.64,51.64,0,0,1,6.73,2,11.31,11.31,0,0,1,4.38,3.08,8.07,8.07,0,0,1,1.83,5.56,9.5,9.5,0,0,1-1.59,5.33,10.58,10.58,0,0,1-4.83,3.81,19.85,19.85,0,0,1-7.95,1.41A25.28,25.28,0,0,1,815.74,666.46Z"/></g></g></svg>